<svg width="215.000000" height="30.000000" viewBox="0 0 215 30" fill="none" xmlns="http://www.w3.org/2000/svg" xmlns:xlink="http://www.w3.org/1999/xlink">
	<desc>
			Created with Pixso.
	</desc>
	<defs/>
	<path id="Nature Health" d="M188.57 24L188.57 7.72L186.57 7.72L186.57 24L188.57 24ZM210.64 12.3C209.9 11.91 209.08 11.72 208.18 11.72C207.31 11.72 206.53 11.89 205.83 12.23C205.14 12.56 204.59 13.04 204.19 13.66L204.19 7.72L202.19 7.72L202.19 24L204.19 24L204.19 17.33C204.19 16.07 204.5 15.11 205.13 14.45C205.75 13.79 206.59 13.46 207.65 13.46Q208.84 13.46 209.65 14.02Q209.9 14.19 210.11 14.41C210.71 15.05 211.01 15.97 211.01 17.17L211.01 24L213 24L213 16.89Q213 15.22 212.37 14.05C211.95 13.28 211.37 12.69 210.64 12.3ZM61.74 24L63.75 24L63.75 8.64L61.74 8.64L61.74 20.83L53.69 8.64L51.69 8.64L51.69 24L53.69 24L53.69 11.79L61.74 24ZM151.35 24L151.35 8.66L149.35 8.66L149.35 15.39L141.54 15.39L141.54 8.66L139.53 8.66L139.53 24L141.54 24L141.54 17.04L149.35 17.04L149.35 24L151.35 24ZM86.67 20.7L86.67 13.59L89.82 13.59L89.82 11.94L86.67 11.94L86.67 8.9L84.67 8.9L84.67 11.94L83.1 11.94L83.1 13.59L84.67 13.59L84.67 20.7Q84.67 22.45 85.5 23.23C86.06 23.74 86.9 24 88.01 24L89.82 24L89.82 22.3L88.34 22.3C87.72 22.3 87.29 22.18 87.04 21.94Q86.67 21.57 86.67 20.7ZM195.53 20.7L195.53 13.59L198.67 13.59L198.67 11.94L195.53 11.94L195.53 8.9L193.52 8.9L193.52 11.94L191.96 11.94L191.96 13.59L193.52 13.59L193.52 20.7Q193.52 22.45 194.36 23.23C194.92 23.74 195.75 24 196.87 24L198.67 24L198.67 22.3L197.2 22.3C196.58 22.3 196.15 22.18 195.9 21.94Q195.53 21.57 195.53 20.7ZM112.02 12.29C111.37 12.67 110.87 13.21 110.52 13.9L110.52 11.94L108.51 11.94L108.51 24L110.52 24L110.52 17.44Q110.52 15.46 111.5 14.56Q112.34 13.78 113.88 13.78L114.41 13.78L114.41 11.72C113.47 11.72 112.68 11.91 112.02 12.29ZM68.25 14.68C67.76 15.61 67.51 16.69 67.51 17.93Q67.51 19.74 68.25 21.17Q68.25 21.17 68.25 21.18Q68.79 22.2 69.61 22.9Q69.93 23.18 70.3 23.4C71.17 23.93 72.13 24.19 73.21 24.19Q74.71 24.19 75.85 23.56Q75.9 23.53 75.94 23.5C76.73 23.04 77.32 22.46 77.72 21.75L77.72 24L79.74 24L79.74 11.94L77.72 11.94L77.72 14.14Q77.68 14.07 77.63 14Q77.06 13.06 75.98 12.43C75.2 11.97 74.28 11.74 73.23 11.74Q72.1 11.74 71.12 12.12Q70.7 12.28 70.31 12.51C69.44 13.02 68.75 13.75 68.25 14.68ZM128.75 18.72Q128.82 18.08 128.82 17.51C128.82 16.4 128.58 15.42 128.11 14.55C127.63 13.67 126.95 12.99 126.07 12.49C125.19 11.99 124.18 11.74 123.03 11.74C121.86 11.74 120.82 12 119.92 12.5C119.02 13.01 118.32 13.73 117.82 14.67C117.32 15.6 117.07 16.7 117.07 17.95C117.07 19.19 117.33 20.29 117.84 21.23Q118.32 22.11 119.02 22.74Q119.45 23.13 119.97 23.43C120.87 23.94 121.89 24.19 123.03 24.19Q124.99 24.19 126.36 23.3Q126.51 23.21 126.64 23.1C127.61 22.38 128.25 21.43 128.58 20.28L126.42 20.28C126.19 20.95 125.78 21.49 125.2 21.89C124.62 22.3 123.9 22.5 123.03 22.5C121.98 22.5 121.08 22.16 120.34 21.5C119.6 20.83 119.19 19.9 119.12 18.72L128.75 18.72ZM166.79 18.72Q166.86 18.08 166.86 17.51C166.86 16.4 166.62 15.42 166.14 14.55C165.67 13.67 164.99 12.99 164.11 12.49C163.23 11.99 162.22 11.74 161.07 11.74C159.9 11.74 158.86 12 157.96 12.5C157.06 13.01 156.36 13.73 155.86 14.67C155.36 15.6 155.11 16.7 155.11 17.95C155.11 19.19 155.37 20.29 155.88 21.23Q156.36 22.11 157.06 22.74Q157.49 23.13 158 23.43C158.91 23.94 159.93 24.19 161.07 24.19Q163.03 24.19 164.4 23.3Q164.54 23.21 164.68 23.1C165.65 22.38 166.29 21.43 166.62 20.28L164.46 20.28C164.23 20.95 163.82 21.49 163.24 21.89C162.66 22.3 161.94 22.5 161.07 22.5C160.02 22.5 159.12 22.16 158.38 21.5C157.64 20.83 157.23 19.9 157.16 18.72L166.79 18.72ZM170.6 14.68C170.1 15.61 169.85 16.69 169.85 17.93C169.85 19.14 170.1 20.22 170.6 21.18Q171.13 22.2 171.95 22.9Q172.27 23.18 172.64 23.4C173.51 23.93 174.48 24.19 175.55 24.19Q177.05 24.19 178.19 23.56Q178.24 23.53 178.29 23.5C179.07 23.04 179.66 22.46 180.06 21.75L180.06 24L182.08 24L182.08 11.94L180.06 11.94L180.06 14.14Q180.02 14.07 179.98 14Q179.41 13.06 178.32 12.43C177.54 11.97 176.63 11.74 175.57 11.74Q174.45 11.74 173.47 12.12Q173.05 12.28 172.65 12.51C171.78 13.02 171.1 13.75 170.6 14.68ZM104.03 24L104.03 11.94L102.02 11.94L102.02 18.56C102.02 19.82 101.72 20.78 101.1 21.44C100.48 22.1 99.64 22.43 98.57 22.43Q97.37 22.43 96.57 21.87Q96.32 21.7 96.1 21.48C95.51 20.84 95.21 19.93 95.21 18.74L95.21 11.94L93.23 11.94L93.23 19C93.23 20.12 93.44 21.06 93.88 21.84C94.31 22.62 94.9 23.2 95.64 23.59C96.39 23.98 97.24 24.17 98.18 24.17C99 24.17 99.75 24 100.43 23.66C101.11 23.31 101.64 22.83 102.02 22.21L102.02 24L104.03 24ZM126.25 15.12C126.58 15.67 126.75 16.33 126.75 17.09L119.14 17.09C119.24 15.94 119.65 15.05 120.36 14.4C121.07 13.76 121.94 13.44 122.95 13.44C123.65 13.44 124.29 13.58 124.87 13.87C125.45 14.15 125.91 14.57 126.25 15.12ZM164.28 15.12C164.62 15.67 164.79 16.33 164.79 17.09L157.18 17.09C157.28 15.94 157.69 15.05 158.4 14.4C159.11 13.76 159.97 13.44 160.99 13.44C161.69 13.44 162.33 13.58 162.91 13.87C163.49 14.15 163.95 14.57 164.28 15.12ZM77.16 15.57C77.53 16.25 77.72 17.04 77.72 17.95C77.72 18.86 77.53 19.65 77.16 20.33Q76.76 21.08 76.16 21.57Q75.93 21.75 75.68 21.89C75.06 22.25 74.37 22.43 73.62 22.43Q72.86 22.43 72.19 22.18Q71.87 22.07 71.58 21.89C70.96 21.53 70.47 21.01 70.1 20.33C69.74 19.65 69.55 18.85 69.55 17.93C69.55 17.02 69.74 16.22 70.1 15.55C70.47 14.87 70.96 14.36 71.58 14.01Q71.86 13.85 72.16 13.73Q72.85 13.48 73.62 13.48Q74.34 13.48 74.98 13.7Q75.34 13.83 75.68 14.02C76.3 14.38 76.8 14.9 77.16 15.57ZM179.51 15.57C179.88 16.25 180.06 17.04 180.06 17.95C180.06 18.86 179.88 19.65 179.51 20.33Q179.11 21.08 178.5 21.57Q178.28 21.75 178.03 21.89C177.4 22.25 176.72 22.43 175.97 22.43Q175.2 22.43 174.53 22.18Q174.22 22.07 173.92 21.89C173.31 21.53 172.81 21.01 172.45 20.33C172.08 19.65 171.9 18.85 171.9 17.93C171.9 17.02 172.08 16.22 172.45 15.55C172.81 14.87 173.31 14.36 173.92 14.01Q174.21 13.85 174.51 13.73Q175.19 13.48 175.97 13.48C176.72 13.48 177.4 13.66 178.03 14.02C178.65 14.38 179.14 14.9 179.51 15.57Z" fill="#000000" fill-opacity="1.000000" fill-rule="evenodd"/>
	<path id="Vector" d="M22.5 7.89C9 11.05 5.85 20.79 2.73 28.95L5.56 30L6.99 26.36C7.71 26.63 8.46 26.84 9 26.84C25.5 26.84 30 0 30 0C28.5 3.15 18 3.55 10.5 5.13C3 6.71 0 13.42 0 16.57C0 19.73 2.62 22.5 2.62 22.5C7.5 7.89 22.5 7.89 22.5 7.89Z" fill="#75B544" fill-opacity="1.000000" fill-rule="evenodd"/>
</svg>
